<?xml version="1.0" encoding="utf-8"?>
<!-- Generator: Adobe Illustrator 21.0.0, SVG Export Plug-In . SVG Version: 6.00 Build 0)  -->
<svg version="1.1" id="Layer_1" xmlns="http://www.w3.org/2000/svg" xmlns:xlink="http://www.w3.org/1999/xlink" x="0px" y="0px"
	 viewBox="0 0 17 14.5" style="enable-background:new 0 0 17 14.5;" xml:space="preserve">
<style type="text/css">
	.st0{fill:#231F20;}
	.st1{fill-rule:evenodd;clip-rule:evenodd;fill:#231F20;}
	.st2{fill:#FFFFFF;}
</style>
<g>
	<path class="st0" d="M1.3,11.5C1.2,11.4,1,11.2,1,11V9.6C1,8.8,1.4,8,2.1,7.6l0.5-0.3C2.8,7.1,3,6.8,3,6.5c0-0.3-0.1-0.6-0.3-0.8
		L2.3,5.3C2,5,1.8,4.6,1.8,4.1c0-0.9,0.8-1.7,1.7-1.7c0.3,0,0.5,0.1,0.7,0.2c0.1-0.3,0.2-0.7,0.3-1c-0.3-0.1-0.7-0.2-1-0.2
		C2,1.4,0.8,2.6,0.8,4.1c0,0.7,0.3,1.4,0.8,1.9L2,6.4L1.6,6.7C0.6,7.4,0,8.5,0,9.6V11c0,0.5,0.3,1.1,0.8,1.4
		c0.8,0.5,1.7,0.7,2.7,0.7c-0.2-0.3-0.3-0.7-0.3-1C2.5,12.1,1.9,11.9,1.3,11.5z"/>
	<path class="st0" d="M15.4,6.7L15,6.4L15.4,6c0.5-0.5,0.8-1.2,0.8-1.9c0-1.5-1.2-2.7-2.7-2.7c-0.4,0-0.7,0.1-1,0.2
		c0.1,0.3,0.2,0.6,0.3,1c0.2-0.1,0.5-0.2,0.7-0.2c0.9,0,1.7,0.8,1.7,1.7c0,0.5-0.2,0.9-0.5,1.2l-0.4,0.4C14.1,5.9,14,6.2,14,6.5
		c0,0.3,0.2,0.6,0.4,0.7l0.5,0.3C15.6,8,16,8.8,16,9.6V11c0,0.2-0.2,0.4-0.3,0.5c-0.6,0.3-1.2,0.5-1.9,0.6c0,0.3-0.1,0.7-0.3,1
		c0.9,0,1.9-0.3,2.7-0.7c0.5-0.3,0.8-0.9,0.8-1.4V9.6C17,8.5,16.4,7.4,15.4,6.7z"/>
	<path class="st0" d="M12.8,11.9v-1.7c0-0.9-0.3-1.8-0.8-2.5c-0.2-0.3-0.4-0.5-0.7-0.7c-0.1-0.1-0.3-0.2-0.4-0.3l-0.6-0.4l0.5-0.5
		c0.1-0.1,0.2-0.2,0.3-0.4c0.4-0.6,0.7-1.3,0.7-2c0-0.4-0.1-0.8-0.2-1.2C11.1,0.9,9.9,0,8.5,0C7.1,0,5.9,0.9,5.4,2.2
		C5.3,2.5,5.2,2.9,5.2,3.3c0,0.7,0.3,1.4,0.7,2C6,5.5,6.1,5.6,6.2,5.7l0.5,0.5L6.1,6.6C5.9,6.7,5.8,6.8,5.7,6.9
		C5.4,7.2,5.2,7.4,5,7.7c-0.5,0.7-0.8,1.6-0.8,2.5v1.7c0,0.1,0,0.1,0,0.2c0,0.3,0.2,0.7,0.4,0.9c0.2,0.2,0.4,0.5,0.6,0.6
		c1,0.6,2.1,0.9,3.3,0.9c1.2,0,2.3-0.3,3.3-0.9c0.2-0.1,0.5-0.4,0.6-0.6c0.2-0.3,0.3-0.6,0.4-0.9C12.8,12,12.8,11.9,12.8,11.9z
		 M11.8,11.9c0,0.3-0.2,0.6-0.4,0.8c0,0-0.1,0.1-0.1,0.1c-0.8,0.5-1.8,0.8-2.8,0.8c-1,0-2-0.3-2.8-0.8c0,0-0.1,0-0.1-0.1
		c-0.2-0.2-0.4-0.5-0.4-0.8v-0.1v-1.6c0-0.6,0.2-1.2,0.5-1.8c0.2-0.3,0.4-0.5,0.7-0.8c0.1-0.1,0.2-0.2,0.3-0.3L7.2,7
		c0.2-0.2,0.4-0.4,0.4-0.7c0-0.3-0.1-0.6-0.3-0.8L6.9,5C6.4,4.6,6.2,4,6.2,3.3C6.2,2,7.2,1,8.5,1c1.3,0,2.4,1.1,2.4,2.4
		c0,0.6-0.3,1.2-0.7,1.7L9.6,5.5C9.4,5.7,9.3,6,9.3,6.3c0,0.3,0.2,0.6,0.4,0.7l0.6,0.4c0.1,0.1,0.2,0.2,0.3,0.2
		c0.3,0.2,0.5,0.5,0.7,0.8c0.3,0.5,0.5,1.1,0.5,1.7v1.6V11.9z"/>
</g>
</svg>
