<?xml version="1.0" encoding="utf-8"?>
<!-- Generator: Adobe Illustrator 21.0.0, SVG Export Plug-In . SVG Version: 6.00 Build 0)  -->
<svg version="1.1" id="Layer_1" xmlns="http://www.w3.org/2000/svg" xmlns:xlink="http://www.w3.org/1999/xlink" x="0px" y="0px"
	 viewBox="0 0 14.3 14.5" style="enable-background:new 0 0 14.3 14.5;" xml:space="preserve">
<style type="text/css">
	.st0{fill:#231F20;}
	.st1{fill-rule:evenodd;clip-rule:evenodd;fill:#231F20;}
	.st2{fill:#FFFFFF;}
</style>
<g>
	<path class="st0" d="M14.1,6.7L7.7,0.2c-0.3-0.3-0.8-0.3-1.1,0L0.2,6.7C0,6.9,0,7.2,0,7.4c0.1,0.2,0.3,0.4,0.6,0.4h1v6
		c0,0.4,0.3,0.7,0.7,0.7h3c0.4,0,0.7-0.3,0.7-0.7v-3.7h2.1v3.7c0,0.4,0.3,0.7,0.7,0.7h3c0.4,0,0.7-0.3,0.7-0.7v-6h1
		c0.3,0,0.5-0.1,0.6-0.4C14.3,7.2,14.3,6.9,14.1,6.7z M12.4,6.8c-0.4,0-0.7,0.3-0.7,0.7v6H9.2V9.8c0-0.4-0.3-0.7-0.7-0.7H5.8
		c-0.4,0-0.7,0.3-0.7,0.7v3.7H2.6v-6c0-0.4-0.3-0.7-0.7-0.7H1.6l5.6-5.7l5.6,5.7H12.4z"/>
</g>
</svg>
