<?xml version="1.0" encoding="utf-8"?>
<!-- Generator: Adobe Illustrator 21.0.0, SVG Export Plug-In . SVG Version: 6.00 Build 0)  -->
<svg version="1.1" id="Layer_1" xmlns="http://www.w3.org/2000/svg" xmlns:xlink="http://www.w3.org/1999/xlink" x="0px" y="0px"
	 viewBox="0 0 13.8 14.6" style="enable-background:new 0 0 13.8 14.6;" xml:space="preserve">
<style type="text/css">
	.st0{fill:#231F20;}
	.st1{fill-rule:evenodd;clip-rule:evenodd;fill:#231F20;}
	.st2{fill:#FFFFFF;}
</style>
<g>
	<path class="st0" d="M12.8,7.7c-0.2-0.1-0.3-0.3-0.3-0.4c0-0.2,0.1-0.4,0.3-0.4c0.8-0.4,1.2-1.4,0.9-2.3c-0.2-0.6-0.5-1.1-1-1.7
		c-0.6-0.7-1.7-0.9-2.4-0.4c-0.2,0.1-0.4,0.1-0.5,0C9.5,2.3,9.4,2.1,9.4,1.9c0-0.9-0.7-1.8-1.6-1.9C7.2,0,6.6,0,5.9,0.1
		C5,0.2,4.3,1,4.3,2c0,0.2-0.1,0.4-0.3,0.5c-0.1,0.1-0.3,0.1-0.5,0C2.8,1.9,1.7,2.1,1.1,2.8c-0.4,0.5-0.7,1.1-1,1.7
		c-0.3,0.9,0,1.9,0.9,2.3C1.2,7,1.3,7.1,1.3,7.3c0,0.2-0.1,0.3-0.3,0.4c-0.8,0.4-1.2,1.4-0.9,2.3c0.2,0.6,0.6,1.2,1,1.7
		c0.6,0.8,1.7,1,2.5,0.4c0.1-0.1,0.3-0.1,0.5,0c0.2,0.1,0.2,0.3,0.2,0.5c-0.1,1,0.6,1.8,1.6,1.9c0.3,0,0.6,0.1,0.9,0.1
		c0.3,0,0.7,0,1-0.1c1-0.2,1.7-1,1.6-1.9c0-0.2,0.1-0.4,0.2-0.5c0.2-0.1,0.4-0.1,0.5,0c0.3,0.2,0.6,0.3,1,0.3c0.6,0,1.1-0.3,1.5-0.8
		c0.4-0.5,0.7-1.1,0.9-1.7C14,9.1,13.6,8.1,12.8,7.7z M12.7,9.7c-0.2,0.5-0.4,1-0.8,1.5c-0.3,0.3-0.7,0.5-1.1,0.2
		c-0.5-0.3-1.1-0.3-1.6,0c-0.5,0.3-0.7,0.8-0.7,1.4c0,0.4-0.3,0.8-0.7,0.9c-0.6,0.1-1.2,0.1-1.7,0c-0.4-0.1-0.8-0.4-0.7-0.9
		c0-0.6-0.2-1.1-0.7-1.4c-0.2-0.1-0.5-0.2-0.8-0.2c-0.3,0-0.6,0.1-0.8,0.3c-0.4,0.2-0.9,0.2-1.1-0.2c-0.3-0.5-0.6-1-0.8-1.5
		c-0.2-0.4,0-0.9,0.4-1C2,8.4,2.3,7.9,2.3,7.3C2.3,6.8,2,6.3,1.4,6C1.1,5.8,0.9,5.3,1.1,5c0.2-0.6,0.5-1.1,0.9-1.5
		C2.2,3.1,2.6,3,3,3.3c0.5,0.3,1.2,0.3,1.5,0C5,3,5.3,2.5,5.3,1.9c0-0.4,0.3-0.8,0.7-0.9C6.6,1,7.1,1,7.7,1.1
		c0.4,0.1,0.7,0.4,0.7,0.8c0,0.5,0.2,1.1,0.7,1.4c0.5,0.3,1.1,0.3,1.6,0c0.3-0.2,0.8-0.1,1.1,0.2c0.4,0.5,0.7,1,0.9,1.5
		c0.2,0.4,0,0.8-0.4,1c-0.5,0.3-0.8,0.8-0.8,1.3c0,0.5,0.3,1.1,0.9,1.3C12.7,8.7,12.9,9.2,12.7,9.7z M6.9,4.2c-1.7,0-3,1.4-3,3.1
		c0,1.7,1.4,3.1,3,3.1c1.7,0,3-1.4,3-3.1C9.9,5.6,8.6,4.2,6.9,4.2z M6.9,9.3c-1.1,0-2-0.9-2-2.1c0-1.2,0.9-2.1,2-2.1
		c1.1,0,2,0.9,2,2.1C8.9,8.4,8,9.3,6.9,9.3z"/>
</g>
</svg>
