<?xml version="1.0" encoding="utf-8"?>
<!-- Generator: Adobe Illustrator 21.0.0, SVG Export Plug-In . SVG Version: 6.00 Build 0)  -->
<svg version="1.1" id="Layer_1" xmlns="http://www.w3.org/2000/svg" xmlns:xlink="http://www.w3.org/1999/xlink" x="0px" y="0px"
	 viewBox="0 0 20 15" style="enable-background:new 0 0 20 15;" xml:space="preserve">
<style type="text/css">
	.st0{fill:#231F20;}
	.st1{fill-rule:evenodd;clip-rule:evenodd;fill:#231F20;}
	.st2{fill:#FFFFFF;}
</style>
<g>
	<path class="st0" d="M10,4C7.8,4,6,5.8,6,8c0,2.2,1.8,4,4,4c2.2,0,4-1.8,4-4C14,5.8,12.2,4,10,4z M10,11c-1.7,0-3-1.3-3-3
		c0-1.7,1.3-3,3-3c1.7,0,3,1.3,3,3C13,9.7,11.7,11,10,11z M17,2h-1.8l-2-2H6.8l-2,2H3C1.5,2,0,3.5,0,5v7c0,1.4,1.2,3,2.8,3h14.5
		c1.5,0,2.8-1.6,2.8-3V5C20,3.5,18.5,2,17,2z M19,12c0,1-0.9,2-1.8,2H2.8C1.9,14,1,13,1,12V5c0-0.9,1.1-2,2-2h2.2l2-2h5.6l2,2H17
		c0.9,0,2,1.1,2,2V12z"/>
</g>
</svg>
