<?xml version="1.0" encoding="utf-8"?>
<!-- Generator: Adobe Illustrator 21.0.0, SVG Export Plug-In . SVG Version: 6.00 Build 0)  -->
<svg version="1.1" id="Layer_1" xmlns="http://www.w3.org/2000/svg" xmlns:xlink="http://www.w3.org/1999/xlink" x="0px" y="0px"
	 viewBox="0 0 15.3 15.9" style="enable-background:new 0 0 15.3 15.9;" xml:space="preserve">
<style type="text/css">
	.st0{fill:#231F20;}
	.st1{fill-rule:evenodd;clip-rule:evenodd;fill:#231F20;}
	.st2{fill:#FFFFFF;}
</style>
<path class="st0" d="M15.3,1.7H7.7C7.1,0.7,5.7,0,4,0C1.8,0,0,1.2,0,2.7v10.5c0,1.5,1.8,2.7,4,2.7c1.4,0,2.6-0.5,3.3-1.2h8V1.7z
	 M4,1c1.6,0,3,0.8,3,1.7v8.8c-0.7-0.6-1.8-0.9-3-0.9s-2.3,0.4-3,0.9V2.7C1,1.8,2.4,1,4,1z M4,14.9c-1.6,0-2.9-0.7-3-1.6l0,0
	c0.1-0.3,0.3-0.5,0.5-0.7c0.6-0.5,1.7-0.5,2.4,0c0.2,0.1,0.3,0.3,0.3,0.5c0,0.2-0.1,0.4-0.3,0.5l0.6,0.8c0.4-0.3,0.7-0.8,0.7-1.3
	c0-0.5-0.3-1-0.7-1.3c-0.1-0.1-0.3-0.2-0.4-0.3c1.6,0,2.9,0.8,2.9,1.7C7,14.1,5.6,14.9,4,14.9z M14.3,13.8H8v-0.5V2.7v0h6.3V13.8z"
	/>
</svg>
