<?xml version="1.0" encoding="utf-8"?>
<!-- Generator: Adobe Illustrator 21.0.0, SVG Export Plug-In . SVG Version: 6.00 Build 0)  -->
<svg version="1.1" id="Layer_1" xmlns="http://www.w3.org/2000/svg" xmlns:xlink="http://www.w3.org/1999/xlink" x="0px" y="0px"
	 viewBox="0 0 19.3 16" style="enable-background:new 0 0 19.3 16;" xml:space="preserve">
<style type="text/css">
	.st0{fill:#231F20;}
	.st1{fill-rule:evenodd;clip-rule:evenodd;fill:#231F20;}
	.st2{fill:#FFFFFF;}
</style>
<path class="st0" d="M19.3,3.1c0-1.7-1.4-3.1-3.1-3.1c-1.7,0-3.1,1.4-3.1,3.1c0,0.4,0.1,0.7,0.2,1.1H0V16h1v-4.7h14.7V16h1V6.1
	C18.1,5.9,19.3,4.6,19.3,3.1z M14.1,3.1C14.1,1.9,15,1,16.2,1c1.1,0,2.1,0.9,2.1,2.1c0,1.1-0.9,2.1-2.1,2.1
	C15,5.1,14.1,4.2,14.1,3.1z M15.7,6.1v1.2h-2.1V5.1h0.4C14.4,5.6,15,6,15.7,6.1z M6.3,7.2H4.1V5.1h2.1V7.2z M7.3,5.1h2.1v2.1H7.3
	V5.1z M6.3,8.2v2.1H4.1V8.2H6.3z M7.3,8.2h2.1v2.1H7.3V8.2z M10.4,8.2h2.1v2.1h-2.1V8.2z M10.4,7.2V5.1h2.1v2.1H10.4z M3.1,5.1v2.1
	H1V5.1H3.1z M1,8.2h2.1v2.1H1V8.2z M13.5,10.4V8.2h2.1v2.1H13.5z"/>
</svg>
