<?xml version="1.0" encoding="utf-8"?>
<!-- Generator: Adobe Illustrator 21.0.0, SVG Export Plug-In . SVG Version: 6.00 Build 0)  -->
<svg version="1.1" id="Layer_1" xmlns="http://www.w3.org/2000/svg" xmlns:xlink="http://www.w3.org/1999/xlink" x="0px" y="0px"
	 viewBox="0 0 17.7 17.7" style="enable-background:new 0 0 17.7 17.7;" xml:space="preserve">
<style type="text/css">
	.st0{fill:#231F20;}
	.st1{fill-rule:evenodd;clip-rule:evenodd;fill:#231F20;}
	.st2{fill:#FFFFFF;}
</style>
<path class="st0" d="M8.8,0C4,0,0,4,0,8.8s4,8.8,8.8,8.8s8.8-4,8.8-8.8S13.7,0,8.8,0z M12.3,7.3c0,2.3-1.8,5-5,5
	c-1,0-1.9-0.3-2.7-0.8c0.1,0,0.3,0,0.4,0c0.8,0,1.6-0.3,2.2-0.8c-0.8,0-1.4-0.5-1.6-1.2c0.1,0,0.2,0,0.3,0c0.2,0,0.3,0,0.5-0.1
	C5.5,9.4,4.9,8.7,4.9,7.8c0,0,0,0,0,0C5.1,7.9,5.4,8,5.7,8C5.2,7.7,4.9,7.2,4.9,6.6c0-0.3,0.1-0.6,0.2-0.9C6,6.7,7.3,7.4,8.8,7.5
	c0-0.1,0-0.3,0-0.4c0-1,0.8-1.8,1.8-1.8c0.5,0,1,0.2,1.3,0.6c0.4-0.1,0.8-0.2,1.1-0.4c-0.1,0.4-0.4,0.8-0.8,1c0.4,0,0.7-0.1,1-0.3
	c-0.2,0.3-0.5,0.7-0.9,0.9C12.3,7.2,12.3,7.2,12.3,7.3z"/>
</svg>
