<?xml version="1.0" encoding="utf-8"?>
<!-- Generator: Adobe Illustrator 21.0.0, SVG Export Plug-In . SVG Version: 6.00 Build 0)  -->
<svg version="1.1" id="Layer_1" xmlns="http://www.w3.org/2000/svg" xmlns:xlink="http://www.w3.org/1999/xlink" x="0px" y="0px"
	 viewBox="0 0 15 15" style="enable-background:new 0 0 15 15;" xml:space="preserve">
<style type="text/css">
	.st0{fill:#231F20;}
	.st1{fill-rule:evenodd;clip-rule:evenodd;fill:#231F20;}
	.st2{fill:#FFFFFF;}
</style>
<path class="st0" d="M7.5,15C3.4,15,0,11.6,0,7.5S3.4,0,7.5,0C11.6,0,15,3.4,15,7.5S11.6,15,7.5,15z M8,8v6c1.4-0.1,2.7-0.7,3.7-1.5
	C10.6,11.2,9.9,9.7,9.8,8H8z M3.3,12.5c1,0.9,2.3,1.4,3.7,1.5V8H5.2C5.1,9.7,4.4,11.2,3.3,12.5z M10.8,8c0.1,1.4,0.7,2.7,1.6,3.8
	c0.9-1,1.5-2.3,1.6-3.8H10.8z M1,8c0.1,1.4,0.7,2.7,1.6,3.8C3.5,10.7,4.1,9.4,4.2,8H1z M10.8,7H14c-0.1-1.4-0.7-2.7-1.6-3.8
	C11.5,4.3,10.9,5.6,10.8,7z M8,7h1.8c0.1-1.7,0.8-3.2,1.9-4.5C10.7,1.7,9.4,1.1,8,1V7z M5.2,7H7V1C5.6,1.1,4.3,1.7,3.3,2.5
	C4.4,3.8,5.1,5.3,5.2,7z M1,7h3.2C4.1,5.6,3.5,4.3,2.6,3.2C1.7,4.3,1.1,5.6,1,7z"/>
</svg>
