<?xml version="1.0" encoding="utf-8"?>
<!-- Generator: Adobe Illustrator 21.0.0, SVG Export Plug-In . SVG Version: 6.00 Build 0)  -->
<svg version="1.1" id="Layer_1" xmlns="http://www.w3.org/2000/svg" xmlns:xlink="http://www.w3.org/1999/xlink" x="0px" y="0px"
	 viewBox="0 0 19.7 16.1" style="enable-background:new 0 0 19.7 16.1;" xml:space="preserve">
<style type="text/css">
	.st0{fill:#231F20;}
	.st1{fill-rule:evenodd;clip-rule:evenodd;fill:#231F20;}
	.st2{fill:#FFFFFF;}
</style>
<path class="st0" d="M13.5,10.8l2.1,5.2l4.1-1.5L15.5,3.4l-2.6-1.8l-0.7-1.6L9.8,0L7.5,0.1L6.9,1.6L4.2,3.4L0,14.5l4.1,1.5l2.1-5.2
	l0,0L6.3,11v0.7l-1.1,3.7l0.5,0.2c0.1,0,1.5,0.5,4.2,0.5c2.7,0,4.1-0.5,4.2-0.5l0.5-0.2l-1.1-3.7V11L13.5,10.8z M16.2,14.8l-2.1-5.2
	l1.1-4.2l3.2,8.6L16.2,14.8z M14.5,3.9l-1.4,5.5l-0.4,0.7H7l0,0c2.3-2.2,4.1-5,5-8l0.1,0.2L14.5,3.9z M12.4,11.6H7.3l0-0.5h5.1V11.6
	z M11.2,1c-0.3,1.3-0.8,2.5-1.3,3.6C8.8,2.8,8.5,1.6,8.4,1l1.4,0L11.2,1z M7.7,2.3L7.7,2.3c0.3,0.8,0.8,1.9,1.7,3.4
	C8.6,6.9,7.7,8.1,6.6,9.1L5.2,3.9L7.7,2.3z M3.6,14.8l-2.3-0.8l3.3-8.6l1.1,4.1L3.6,14.8z M9.9,15.1c-1.7,0-2.8-0.2-3.4-0.3l0.6-2.1
	h5.6l0.6,2.1C12.7,14.9,11.5,15.1,9.9,15.1z"/>
</svg>
