<?xml version="1.0" encoding="utf-8"?>
<!-- Generator: Adobe Illustrator 21.0.0, SVG Export Plug-In . SVG Version: 6.00 Build 0)  -->
<svg version="1.1" id="Layer_1" xmlns="http://www.w3.org/2000/svg" xmlns:xlink="http://www.w3.org/1999/xlink" x="0px" y="0px"
	 viewBox="0 0 17.7 17.7" style="enable-background:new 0 0 17.7 17.7;" xml:space="preserve">
<style type="text/css">
	.st0{fill:#231F20;}
	.st1{fill-rule:evenodd;clip-rule:evenodd;fill:#231F20;}
	.st2{fill:#FFFFFF;}
</style>
<path class="st0" d="M8.8,0C4,0,0,4,0,8.8s4,8.8,8.8,8.8c4.9,0,8.8-4,8.8-8.8S13.7,0,8.8,0z M6.8,12.3c-1.9,0-3.5-1.5-3.5-3.5
	c0-1.9,1.5-3.5,3.5-3.5c0.9,0,1.7,0.3,2.3,0.9l-1,1C7.8,7,7.3,6.8,6.8,6.8c-1.1,0-2,0.9-2,2c0,1.1,0.9,2,2,2c0.9,0,1.6-0.5,1.9-1.3
	H6.8V8.1h3.4c0.1,0.2,0.1,0.5,0.1,0.7C10.3,10.7,8.8,12.3,6.8,12.3z M14.3,9.1h-1.2v1.2h-0.9V9.1H11V8.2h1.2V7h0.9v1.2h1.2V9.1z"/>
</svg>
