<?xml version="1.0" encoding="utf-8"?>
<!-- Generator: Adobe Illustrator 21.0.0, SVG Export Plug-In . SVG Version: 6.00 Build 0)  -->
<svg version="1.1" id="Layer_1" xmlns="http://www.w3.org/2000/svg" xmlns:xlink="http://www.w3.org/1999/xlink" x="0px" y="0px"
	 viewBox="0 0 2.2 8.8" style="enable-background:new 0 0 2.2 8.8;" xml:space="preserve">
<style type="text/css">
	.st0{fill:#231F20;}
	.st1{fill-rule:evenodd;clip-rule:evenodd;fill:#231F20;}
	.st2{fill:#FFFFFF;}
</style>
<g>
	<path class="st0" d="M1.1,2.2c0.6,0,1.1-0.5,1.1-1.1C2.2,0.5,1.7,0,1.1,0S0,0.5,0,1.1C0,1.7,0.5,2.2,1.1,2.2z M1.1,3.3
		C0.5,3.3,0,3.8,0,4.4s0.5,1.1,1.1,1.1S2.2,5,2.2,4.4S1.7,3.3,1.1,3.3z M1.1,6.7C0.5,6.7,0,7.2,0,7.8c0,0.6,0.5,1.1,1.1,1.1
		s1.1-0.5,1.1-1.1C2.2,7.2,1.7,6.7,1.1,6.7z"/>
</g>
</svg>
