<?xml version="1.0" encoding="utf-8"?>
<!-- Generator: Adobe Illustrator 21.0.0, SVG Export Plug-In . SVG Version: 6.00 Build 0)  -->
<svg version="1.1" id="Layer_1" xmlns="http://www.w3.org/2000/svg" xmlns:xlink="http://www.w3.org/1999/xlink" x="0px" y="0px"
	 viewBox="0 0 15.6 15.6" style="enable-background:new 0 0 15.6 15.6;" xml:space="preserve">
<style type="text/css">
	.st0{fill:#231F20;}
	.st1{fill-rule:evenodd;clip-rule:evenodd;fill:#231F20;}
	.st2{fill:#FFFFFF;}
</style>
<path class="st0" d="M15.6,7.8c0-1.6-0.5-3.3-1.5-4.6l0,0l-0.3-0.3l-0.4-0.5l0,0C12,0.9,10,0,7.8,0C5.7,0,3.6,0.9,2.2,2.5l0,0
	L1.7,2.9c0,0,0,0,0,0L1.5,3.2l0,0C0.5,4.6,0,6.2,0,7.8c0,1.6,0.5,3.3,1.5,4.6l0,0l0.3,0.3c0,0,0,0,0,0l0.4,0.5l0,0
	c1.5,1.6,3.5,2.5,5.7,2.5c2.2,0,4.2-0.9,5.7-2.5l0,0l0.4-0.5l0.3-0.3l0,0C15.1,11.1,15.6,9.5,15.6,7.8z M12.8,3.2
	c0,0-0.1,0.1-0.1,0.1c-0.1,0.1-0.2,0.2-0.2,0.2c-0.1,0.1-0.2,0.2-0.3,0.3C12.1,3.9,12,4,11.9,4.1c-0.1,0.1-0.2,0.2-0.3,0.2
	c-0.1,0.1-0.2,0.1-0.3,0.2c-0.1,0.1-0.2,0.1-0.4,0.2c-0.1,0-0.2,0.1-0.3,0.1c-0.1,0.1-0.3,0.1-0.4,0.2C10.2,5,10.1,5,10,5.1
	c-0.1,0-0.3,0.1-0.4,0.1c-0.1,0-0.2,0.1-0.3,0.1C9.1,5.3,9,5.3,8.8,5.4c-0.1,0-0.2,0-0.2,0c-0.2,0-0.5,0-0.7,0s-0.5,0-0.7,0
	c-0.1,0-0.2,0-0.2,0c-0.2,0-0.3,0-0.5-0.1c-0.1,0-0.2-0.1-0.3-0.1c-0.1,0-0.3-0.1-0.4-0.1C5.6,5,5.5,5,5.4,5C5.2,4.9,5.1,4.9,5,4.8
	c-0.1,0-0.2-0.1-0.3-0.1C4.6,4.6,4.5,4.5,4.3,4.5C4.2,4.4,4.1,4.4,4.1,4.3C3.9,4.2,3.8,4.1,3.7,4.1C3.6,4,3.6,3.9,3.5,3.9
	C3.4,3.8,3.3,3.7,3.2,3.6C3.1,3.5,3,3.4,2.9,3.4c0,0-0.1-0.1-0.1-0.1C4.1,1.8,5.9,1,7.8,1C9.7,1,11.6,1.8,12.8,3.2z M2.2,4
	C2.2,4,2.2,4.1,2.2,4c0.2,0.2,0.3,0.3,0.4,0.3c0.1,0.1,0.2,0.2,0.4,0.3C3,4.7,3.1,4.8,3.2,4.9C3.3,5,3.4,5.1,3.6,5.2
	c0.1,0.1,0.2,0.1,0.3,0.2C4,5.4,4.1,5.5,4.3,5.6c0.1,0.1,0.2,0.1,0.3,0.2C4.7,5.8,4.9,5.9,5,5.9C5.1,6,5.2,6,5.4,6
	c0.2,0.1,0.3,0.1,0.5,0.1c0.1,0,0.2,0.1,0.3,0.1c0.2,0,0.4,0.1,0.6,0.1c0.1,0,0.2,0,0.3,0c0.3,0,0.6,0,0.8,0c0.3,0,0.6,0,0.8,0
	c0.1,0,0.2,0,0.3,0c0.2,0,0.4-0.1,0.6-0.1c0.1,0,0.2-0.1,0.3-0.1c0.2,0,0.3-0.1,0.5-0.1c0.1,0,0.2-0.1,0.3-0.1
	c0.2-0.1,0.3-0.1,0.4-0.2c0.1,0,0.2-0.1,0.3-0.2c0.1-0.1,0.3-0.1,0.4-0.2c0.1-0.1,0.2-0.1,0.3-0.2c0.1-0.1,0.3-0.2,0.4-0.3
	c0.1-0.1,0.2-0.1,0.3-0.2c0.1-0.1,0.2-0.2,0.4-0.3c0.1-0.1,0.2-0.2,0.3-0.2c0,0,0.1-0.1,0.1-0.1c0.8,1.1,1.2,2.4,1.2,3.8
	c0,1.4-0.4,2.7-1.2,3.8c0,0-0.1-0.1-0.1-0.1c-0.1-0.1-0.2-0.2-0.3-0.2c-0.1-0.1-0.2-0.2-0.4-0.3c-0.1-0.1-0.2-0.1-0.3-0.2
	c-0.1-0.1-0.3-0.2-0.4-0.3c-0.1-0.1-0.2-0.1-0.3-0.2c-0.1-0.1-0.3-0.2-0.4-0.2c-0.1-0.1-0.2-0.1-0.3-0.2c-0.1-0.1-0.3-0.1-0.4-0.2
	c-0.1,0-0.2-0.1-0.3-0.1C10.1,9.6,10,9.5,9.8,9.5c-0.1,0-0.2-0.1-0.3-0.1c-0.2,0-0.4-0.1-0.6-0.1c-0.1,0-0.2,0-0.3,0
	c-0.3,0-0.6,0-0.8,0c-0.3,0-0.6,0-0.8,0c-0.1,0-0.2,0-0.3,0c-0.2,0-0.4,0.1-0.5,0.1c-0.1,0-0.2,0.1-0.3,0.1c-0.2,0-0.3,0.1-0.5,0.1
	C5.2,9.6,5.1,9.7,5,9.7C4.9,9.8,4.7,9.8,4.6,9.9c-0.1,0-0.2,0.1-0.3,0.2c-0.1,0.1-0.3,0.1-0.4,0.2c-0.1,0.1-0.2,0.1-0.3,0.2
	c-0.1,0.1-0.3,0.2-0.4,0.3C3.1,10.8,3,10.9,2.9,11c-0.1,0.1-0.2,0.2-0.4,0.3c-0.1,0.1-0.2,0.2-0.3,0.2c0,0-0.1,0.1-0.1,0.1
	C1.4,10.5,1,9.2,1,7.8C1,6.4,1.4,5.1,2.2,4z M2.8,12.4c0,0,0.1-0.1,0.1-0.1c0.1-0.1,0.2-0.2,0.2-0.2c0.1-0.1,0.2-0.2,0.3-0.3
	c0.1-0.1,0.2-0.1,0.3-0.2c0.1-0.1,0.2-0.2,0.3-0.2c0.1-0.1,0.2-0.1,0.3-0.2C4.5,11.1,4.6,11,4.7,11c0.1,0,0.2-0.1,0.3-0.1
	c0.1-0.1,0.3-0.1,0.4-0.2c0.1,0,0.2-0.1,0.3-0.1c0.1,0,0.3-0.1,0.4-0.1c0.1,0,0.2-0.1,0.3-0.1c0.2,0,0.3-0.1,0.5-0.1
	c0.1,0,0.2,0,0.2,0c0.2,0,0.5,0,0.7,0s0.5,0,0.7,0c0.1,0,0.2,0,0.2,0c0.2,0,0.3,0,0.5,0.1c0.1,0,0.2,0.1,0.3,0.1
	c0.1,0,0.3,0.1,0.4,0.1c0.1,0,0.2,0.1,0.3,0.1c0.1,0.1,0.3,0.1,0.4,0.2c0.1,0,0.2,0.1,0.3,0.1c0.1,0.1,0.2,0.1,0.4,0.2
	c0.1,0.1,0.2,0.1,0.3,0.2c0.1,0.1,0.2,0.2,0.3,0.2c0.1,0.1,0.2,0.1,0.3,0.2c0.1,0.1,0.2,0.2,0.3,0.3c0.1,0.1,0.2,0.1,0.2,0.2
	c0,0,0.1,0.1,0.1,0.1c-1.3,1.4-3.1,2.2-5,2.2C5.9,14.6,4.1,13.8,2.8,12.4z"/>
</svg>
