<?xml version="1.0" encoding="utf-8"?>
<!-- Generator: Adobe Illustrator 21.0.0, SVG Export Plug-In . SVG Version: 6.00 Build 0)  -->
<svg version="1.1" id="Layer_1" xmlns="http://www.w3.org/2000/svg" xmlns:xlink="http://www.w3.org/1999/xlink" x="0px" y="0px"
	 viewBox="0 0 6.8 6.8" style="enable-background:new 0 0 6.8 6.8;" xml:space="preserve">
<style type="text/css">
	.st0{fill:#231F20;}
	.st1{fill-rule:evenodd;clip-rule:evenodd;fill:#231F20;}
	.st2{fill:#FFFFFF;}
</style>
<g>
	<path class="st0" d="M3.9,3.3V2.1c0-0.3-0.2-0.5-0.5-0.5c-0.3,0-0.5,0.2-0.5,0.5v1.3c0,0.1,0,0.1,0,0.2c0,0,0,0,0,0.1
		c0,0,0,0,0,0.1l0.6,0.9c0.1,0.1,0.2,0.2,0.4,0.2c0.1,0,0.2,0,0.3-0.1C4.6,4.5,4.6,4.2,4.5,4L3.9,3.3z M6.3,5.9H5.8
		c0.6-0.6,1-1.5,1-2.4C6.8,1.5,5.3,0,3.4,0C1.5,0,0,1.5,0,3.4c0,1,0.4,1.8,1,2.4H0.6c-0.3,0-0.5,0.2-0.5,0.5c0,0.3,0.2,0.5,0.5,0.5
		h5.7c0.3,0,0.5-0.2,0.5-0.5C6.8,6.1,6.6,5.9,6.3,5.9z M3.4,5.9C2.1,5.9,1,4.8,1,3.4C1,2.1,2.1,1,3.4,1c1.3,0,2.4,1.1,2.4,2.4
		C5.9,4.8,4.8,5.9,3.4,5.9z"/>
</g>
</svg>
