<?xml version="1.0" encoding="utf-8"?>
<!-- Generator: Adobe Illustrator 21.0.0, SVG Export Plug-In . SVG Version: 6.00 Build 0)  -->
<svg version="1.1" id="Layer_1" xmlns="http://www.w3.org/2000/svg" xmlns:xlink="http://www.w3.org/1999/xlink" x="0px" y="0px"
	 viewBox="0 0 5 8" style="enable-background:new 0 0 5 8;" xml:space="preserve">
<style type="text/css">
	.st0{fill:#231F20;}
	.st1{fill-rule:evenodd;clip-rule:evenodd;fill:#231F20;}
	.st2{fill:#FFFFFF;}
</style>
<path class="st0" d="M3.9,3.4C4.3,3.1,4.5,2.6,4.5,2c0-1.1-0.9-2-2-2c-1.1,0-2,0.9-2,2c0,0.6,0.2,1.1,0.6,1.4C0.4,3.9,0,4.6,0,5.5V7
	c0.7,0.7,1.6,1,2.5,1C3.4,8,4.3,7.6,5,7V5.5C5,4.6,4.5,3.9,3.9,3.4z M2.5,1c0.5,0,1,0.4,1,1c0,0.5-0.4,1-1,1c-0.5,0-1-0.4-1-1
	C1.5,1.4,2,1,2.5,1z M2.5,7C1.9,7,1.4,6.8,1,6.5v-1v0C1,4.6,1.7,4,2.5,4C3.3,4,4,4.6,4,5.5v0v1C3.5,6.8,3,7,2.5,7z"/>
</svg>
