<?xml version="1.0" encoding="utf-8"?>
<!-- Generator: Adobe Illustrator 21.0.0, SVG Export Plug-In . SVG Version: 6.00 Build 0)  -->
<svg version="1.1" id="Layer_1" xmlns="http://www.w3.org/2000/svg" xmlns:xlink="http://www.w3.org/1999/xlink" x="0px" y="0px"
	 viewBox="0 0 8.8 8" style="enable-background:new 0 0 8.8 8;" xml:space="preserve">
<style type="text/css">
	.st0{fill:#231F20;}
	.st1{fill-rule:evenodd;clip-rule:evenodd;fill:#231F20;}
	.st2{fill:#FFFFFF;}
</style>
<g>
	<path class="st1" d="M4.4,5.7c-0.6,0-1.1,0.5-1.1,1.1C3.3,7.5,3.8,8,4.4,8C5,8,5.5,7.5,5.5,6.8C5.5,6.2,5,5.7,4.4,5.7z M0,4.4h8.8
		V3.5H0V4.4z M1.1,2.2c0.6,0,1.1-0.5,1.1-1.1S1.7,0,1.1,0C0.5,0,0,0.5,0,1.1S0.5,2.2,1.1,2.2z M4.4,2.2c0.6,0,1.1-0.5,1.1-1.1
		S5,0,4.4,0C3.8,0,3.3,0.5,3.3,1.1S3.8,2.2,4.4,2.2z M7.7,2.2c0.6,0,1.1-0.5,1.1-1.1S8.3,0,7.7,0C7.1,0,6.6,0.5,6.6,1.1
		S7.1,2.2,7.7,2.2z"/>
</g>
</svg>
