<?xml version="1.0" encoding="utf-8"?>
<!-- Generator: Adobe Illustrator 21.0.0, SVG Export Plug-In . SVG Version: 6.00 Build 0)  -->
<svg version="1.1" id="Layer_1" xmlns="http://www.w3.org/2000/svg" xmlns:xlink="http://www.w3.org/1999/xlink" x="0px" y="0px"
	 viewBox="0 0 4.9 4.5" style="enable-background:new 0 0 4.9 4.5;" xml:space="preserve">
<style type="text/css">
	.st0{fill:#231F20;}
	.st1{fill-rule:evenodd;clip-rule:evenodd;fill:#231F20;}
	.st2{fill:#FFFFFF;}
</style>
<path class="st0" d="M2.6,0C1.3,0,0.3,1,0.3,2.3c0,0.2,0,0.4,0.1,0.6C0.3,2.9,0.2,3,0.1,3.2C0,3.3,0,3.5,0,3.7C0,3.8,0,3.9,0.1,4
	c0.1-0.3,0.4-0.4,0.7-0.4c0.4,0.5,1,0.9,1.8,0.9c1.2,0,2.3-1,2.3-2.3C4.9,1,3.8,0,2.6,0z M1.3,2.7C1,2.7,0.8,2.5,0.8,2.3
	C0.8,2,1,1.8,1.3,1.8c0.3,0,0.5,0.2,0.5,0.4C1.7,2.5,1.5,2.7,1.3,2.7z M2.6,2.7c-0.3,0-0.5-0.2-0.5-0.4c0-0.2,0.2-0.4,0.5-0.4
	S3,2,3,2.3C3,2.5,2.8,2.7,2.6,2.7z M3.9,2.7c-0.3,0-0.5-0.2-0.5-0.4c0-0.2,0.2-0.4,0.5-0.4c0.3,0,0.5,0.2,0.5,0.4
	C4.4,2.5,4.2,2.7,3.9,2.7z"/>
</svg>
