<?xml version="1.0" encoding="utf-8"?>
<!-- Generator: Adobe Illustrator 21.0.0, SVG Export Plug-In . SVG Version: 6.00 Build 0)  -->
<svg version="1.1" id="Layer_1" xmlns="http://www.w3.org/2000/svg" xmlns:xlink="http://www.w3.org/1999/xlink" x="0px" y="0px"
	 viewBox="0 0 11 9.7" style="enable-background:new 0 0 11 9.7;" xml:space="preserve">
<style type="text/css">
	.st0{fill:#231F20;}
	.st1{fill-rule:evenodd;clip-rule:evenodd;fill:#231F20;}
	.st2{fill:#FFFFFF;}
</style>
<path class="st0" d="M7.9,0C7.1,0,6.3,0.3,5.7,0.9C5.6,1.1,5.5,1.1,5.5,1.1S5.4,1,5.3,0.9C4.7,0.3,3.9,0,3.1,0
	C2.3,0,1.5,0.3,0.9,0.9c-1.2,1.2-1.2,3.2,0,4.4l4.4,4.4c0.1,0.1,0.1,0.1,0.2,0.1c0.1,0,0.1,0,0.2-0.1l4.4-4.4c1.2-1.2,1.2-3.2,0-4.4
	C9.5,0.3,8.7,0,7.9,0L7.9,0z"/>
</svg>
