<?xml version="1.0" encoding="utf-8"?>
<!-- Generator: Adobe Illustrator 21.0.0, SVG Export Plug-In . SVG Version: 6.00 Build 0)  -->
<svg version="1.1" id="Layer_1" xmlns="http://www.w3.org/2000/svg" xmlns:xlink="http://www.w3.org/1999/xlink" x="0px" y="0px"
	 viewBox="0 0 8.6 14.5" style="enable-background:new 0 0 8.6 14.5;" xml:space="preserve">
<style type="text/css">
	.st0{fill:#231F20;}
	.st1{fill-rule:evenodd;clip-rule:evenodd;fill:#231F20;}
	.st2{fill:#FFFFFF;}
</style>
<path class="st0" d="M4.3,1C5.7,1,6.7,2,6.7,3.3C6.7,4,6.5,4.6,6,5L5.5,5.5C5.3,5.7,5.2,6,5.2,6.3c0,0.3,0.2,0.6,0.4,0.7l0.6,0.4
	c0.9,0.6,1.5,1.7,1.5,2.8v1.7c0,0.3-0.2,0.7-0.5,0.9c-0.8,0.5-1.8,0.8-2.8,0.8c-1,0-2-0.3-2.8-0.8C1.2,12.6,1,12.2,1,11.9v-1.7
	C1,9.1,1.5,8,2.5,7.4L3.1,7c0.2-0.2,0.4-0.4,0.4-0.7c0-0.3-0.1-0.6-0.3-0.8L2.7,5C2.2,4.6,2,4,2,3.3C2,2,3,1,4.3,1 M4.3,0
	C2.5,0,1,1.5,1,3.3c0,0.9,0.4,1.7,1,2.4l0.5,0.5L1.9,6.6C0.7,7.4,0,8.8,0,10.2v1.7c0,0.7,0.4,1.4,1,1.7c1,0.6,2.1,0.9,3.3,0.9
	c1.2,0,2.3-0.3,3.3-0.9c0.6-0.3,1-1.1,1-1.7v-1.7c0-1.4-0.7-2.8-1.9-3.6L6.2,6.2l0.5-0.5c0.7-0.6,1-1.5,1-2.4C7.7,1.5,6.2,0,4.3,0
	L4.3,0z"/>
</svg>
