<?xml version="1.0" encoding="utf-8"?>
<!-- Generator: Adobe Illustrator 21.0.0, SVG Export Plug-In . SVG Version: 6.00 Build 0)  -->
<svg version="1.1" id="Layer_1" xmlns="http://www.w3.org/2000/svg" xmlns:xlink="http://www.w3.org/1999/xlink" x="0px" y="0px"
	 viewBox="0 0 19.5 14.6" style="enable-background:new 0 0 19.5 14.6;" xml:space="preserve">
<style type="text/css">
	.st0{fill:#231F20;}
	.st1{fill-rule:evenodd;clip-rule:evenodd;fill:#231F20;}
	.st2{fill:#FFFFFF;}
</style>
<path class="st0" d="M18.8,7.4c-0.6-0.3-1.3-0.4-2-0.5c0.2-1.3,0-2.6-0.5-3.8l-0.3-0.7l-0.7,0.1c-0.9,0.1-1.8,0.4-2.6,0.9
	c-0.5-1.2-1.3-2.2-2.4-3L9.8,0L9.2,0.4c-1,0.7-1.8,1.8-2.4,3C6,3,5.1,2.7,4.2,2.6L3.5,2.5L3.2,3.2C2.7,4.3,2.5,5.6,2.7,7
	C2,7,1.3,7.2,0.7,7.4L0,7.7l0.1,0.7c0.3,2,1.6,4,3.6,5.1c1.2,0.7,2.4,1,3.7,1c0.7,0,1.5-0.1,2.1-0.4l0.2-0.1l0.1,0l0.1,0l0.2,0.1
	c0.7,0.2,1.4,0.4,2.1,0.4c1.3,0,2.6-0.4,3.7-1c2-1.1,3.3-3,3.6-5.1l0.1-0.7L18.8,7.4z M15.4,3.5c0.4,1,0.6,2.2,0.4,3.4
	C15,7,14.2,7.2,13.5,7.5c0-0.1,0-0.3,0-0.4c0-0.9-0.2-1.9-0.4-2.7C13.8,3.9,14.6,3.6,15.4,3.5z M4.1,3.5c0.8,0.1,1.6,0.4,2.4,0.8
	C6.2,5.2,6,6.2,6,7.1c0,0.1,0,0.3,0,0.4C5.3,7.2,4.5,7,3.7,7C3.5,5.8,3.7,4.6,4.1,3.5z M4.1,12.7c-1.7-1-2.9-2.6-3.1-4.3
	C1.6,8.1,2.3,8,2.9,8c0.1,0,0.2,0,0.3,0c1,0,2.1,0.3,3,0.8c0,0.2,0.1,0.3,0.1,0.5c0.4,1.7,1.2,3.1,2.4,4.2l0,0
	c-0.4,0.1-0.8,0.2-1.3,0.2C6.3,13.6,5.2,13.3,4.1,12.7z M9.5,12.7C8.6,12,7.9,11,7.5,9.9C7.3,9.3,7.2,8.7,7.1,8.1
	c0-0.3-0.1-0.6-0.1-1C7,6,7.3,4.9,7.7,4c0.5-1.1,1.2-2.1,2.1-2.7c0.9,0.7,1.6,1.6,2.1,2.7c0.4,1,0.7,2,0.7,3.1c0,0.3,0,0.7-0.1,1
	c-0.1,0.6-0.2,1.2-0.4,1.8c-0.4,1.1-1.1,2.1-2,2.9C10,12.8,9.9,12.9,9.8,13C9.7,12.9,9.6,12.8,9.5,12.7z M15.4,12.7
	c-1,0.6-2.1,0.9-3.2,0.9c-0.4,0-0.9-0.1-1.3-0.2l0,0c1.2-1.1,2-2.5,2.4-4.2c0-0.2,0.1-0.3,0.1-0.5c1-0.5,2-0.8,3-0.8
	c0.1,0,0.2,0,0.3,0c0.6,0,1.2,0.1,1.8,0.4C18.2,10.1,17.1,11.7,15.4,12.7z"/>
</svg>
