<?xml version="1.0" encoding="utf-8"?>
<!-- Generator: Adobe Illustrator 21.0.0, SVG Export Plug-In . SVG Version: 6.00 Build 0)  -->
<svg version="1.1" id="Layer_1" xmlns="http://www.w3.org/2000/svg" xmlns:xlink="http://www.w3.org/1999/xlink" x="0px" y="0px"
	 viewBox="0 0 10.2 10.2" style="enable-background:new 0 0 10.2 10.2;" xml:space="preserve">
<style type="text/css">
	.st0{fill:#231F20;}
	.st1{fill-rule:evenodd;clip-rule:evenodd;fill:#231F20;}
	.st2{fill:#FFFFFF;}
</style>
<g>
	<path class="st1" d="M5.1,0c2.8,0,5.1,2.3,5.1,5.1c0,2.8-2.3,5.1-5.1,5.1C2.3,10.2,0,7.9,0,5.1C0,2.3,2.3,0,5.1,0z"/>
	<path class="st2" d="M5.6,6.3c0.9-0.1,1.5-0.7,1.5-0.7S6.6,4.7,6.6,4c0-1.2-0.7-1.7-1.6-1.7v0C4.2,2.2,3.4,2.8,3.4,4
		C3.4,4.7,3,5.6,3,5.6s0.6,0.6,1.5,0.7C3.2,6.7,2.4,7.2,2.4,7.4v0.1h0c0,0.2,1.2,0.4,2.7,0.4c1.5,0,2.7-0.2,2.7-0.4V7.4h0
		C7.8,7.2,6.9,6.7,5.6,6.3z"/>
</g>
</svg>
