<?xml version="1.0" encoding="utf-8"?>
<!-- Generator: Adobe Illustrator 21.0.0, SVG Export Plug-In . SVG Version: 6.00 Build 0)  -->
<svg version="1.1" id="Layer_1" xmlns="http://www.w3.org/2000/svg" xmlns:xlink="http://www.w3.org/1999/xlink" x="0px" y="0px"
	 viewBox="0 0 13.1 15.7" style="enable-background:new 0 0 13.1 15.7;" xml:space="preserve">
<style type="text/css">
	.st0{fill:#231F20;}
	.st1{fill-rule:evenodd;clip-rule:evenodd;fill:#231F20;}
	.st2{fill:#FFFFFF;}
</style>
<path class="st0" d="M12.1,1.3v1l-0.2,0.1L5.1,3.8V3.2V2.8L12.1,1.3 M11,10.3c0.2,0,0.4,0,0.6,0.1l0.4,0.2V11c0,0.4-0.4,1-1.1,1.4
	c-0.3,0.2-0.7,0.2-1,0.2c-0.5,0-0.8-0.2-1-0.4c-0.2-0.4,0.2-1.2,1.1-1.7C10.4,10.4,10.7,10.3,11,10.3 M3.1,12.3c0.2,0,0.4,0,0.6,0.1
	l0.4,0.2V13c0,0.4-0.4,1-1.1,1.4c-0.3,0.2-0.7,0.2-1,0.2c-0.5,0-0.8-0.2-1-0.4C1,14,1,13.8,1.1,13.7c0.1-0.4,0.5-0.8,1.1-1.1
	C2.4,12.4,2.8,12.3,3.1,12.3 M13.1,0l-9,2v1.2v1.8v6.5c-0.3-0.1-0.6-0.2-1-0.2c-0.5,0-1,0.1-1.4,0.3c-1.3,0.6-2,2-1.5,3
	c0.3,0.6,1,1,1.9,1c0.5,0,1-0.1,1.4-0.3c1-0.5,1.7-1.4,1.7-2.3V4.8L12,3.3v6.2c-0.3-0.1-0.6-0.2-1-0.2c-0.5,0-1,0.1-1.4,0.3
	c-1.3,0.6-2,2-1.5,3c0.3,0.6,1,1,1.9,1c0.5,0,1-0.1,1.4-0.3c1-0.5,1.7-1.4,1.7-2.3V3V1.2V0L13.1,0z"/>
</svg>
