<?xml version="1.0" encoding="utf-8"?>
<!-- Generator: Adobe Illustrator 21.0.0, SVG Export Plug-In . SVG Version: 6.00 Build 0)  -->
<svg version="1.1" id="Layer_1" xmlns="http://www.w3.org/2000/svg" xmlns:xlink="http://www.w3.org/1999/xlink" x="0px" y="0px"
	 viewBox="0 0 13.6 14.5" style="enable-background:new 0 0 13.6 14.5;" xml:space="preserve">
<style type="text/css">
	.st0{fill:#231F20;}
	.st1{fill-rule:evenodd;clip-rule:evenodd;fill:#231F20;}
	.st2{fill:#FFFFFF;}
</style>
<path class="st0" d="M12.7,7.7c-0.2-0.1-0.3-0.3-0.3-0.5c0-0.2,0.1-0.4,0.3-0.5c0.8-0.4,1.2-1.4,0.8-2.2c-0.2-0.5-0.5-1.1-1-1.7
	c-0.5-0.7-1.6-0.9-2.3-0.4c-0.2,0.1-0.4,0.1-0.6,0C9.4,2.3,9.3,2.1,9.3,1.9c0-0.9-0.6-1.7-1.5-1.8C7.1,0,6.5,0,5.8,0.1
	C4.9,0.2,4.3,1,4.3,1.9c0,0.2-0.1,0.4-0.3,0.5c-0.2,0.1-0.4,0.1-0.6,0C2.7,1.9,1.7,2.1,1.1,2.8c-0.4,0.5-0.7,1.1-1,1.7
	c-0.3,0.9,0,1.8,0.8,2.2c0.2,0.1,0.3,0.3,0.3,0.5c0,0.2-0.1,0.4-0.3,0.5C0.2,8.2-0.2,9.1,0.1,10c0.2,0.6,0.6,1.2,1,1.7
	c0.5,0.7,1.6,0.9,2.4,0.4c0.2-0.1,0.4-0.1,0.6,0c0.2,0.1,0.3,0.3,0.3,0.5c-0.1,0.9,0.6,1.7,1.5,1.9c0.3,0,0.6,0.1,0.9,0.1
	c0.3,0,0.6,0,1-0.1c0.9-0.2,1.6-0.9,1.5-1.8c0-0.2,0.1-0.4,0.3-0.5c0.2-0.1,0.4-0.1,0.6,0c0.3,0.2,0.6,0.3,0.9,0.3
	c0.6,0,1.1-0.3,1.4-0.7c0.4-0.5,0.7-1.1,0.9-1.7C13.9,9.1,13.5,8,12.7,7.7z M6.8,9.3c-1.2,0-2.1-0.9-2.1-2.1c0-1.2,0.9-2.1,2.1-2.1
	c1.2,0,2.1,1,2.1,2.1C8.9,8.4,8,9.3,6.8,9.3z"/>
</svg>
