<?xml version="1.0" encoding="utf-8"?>
<!-- Generator: Adobe Illustrator 21.0.0, SVG Export Plug-In . SVG Version: 6.00 Build 0)  -->
<svg version="1.1" id="Layer_1" xmlns="http://www.w3.org/2000/svg" xmlns:xlink="http://www.w3.org/1999/xlink" x="0px" y="0px"
	 viewBox="0 0 10.2 10.2" style="enable-background:new 0 0 10.2 10.2;" xml:space="preserve">
<style type="text/css">
	.st0{fill:#231F20;}
	.st1{fill-rule:evenodd;clip-rule:evenodd;fill:#231F20;}
	.st2{fill:#FFFFFF;}
</style>
<g>
	<path class="st1" d="M5.1,0c2.8,0,5.1,2.3,5.1,5.1c0,2.8-2.3,5.1-5.1,5.1C2.3,10.2,0,7.9,0,5.1C0,2.3,2.3,0,5.1,0z"/>
	<path class="st2" d="M6.1,6.4C6,6.4,5.8,6.2,5.8,6.1V5.6c0,0,0.2-0.2,0.3-0.8c0.2,0,0.2-0.2,0.2-0.3c0-0.1,0.1-0.6-0.1-0.5
		c0-0.3,0.1-0.6,0.1-0.7c0-0.5-0.5-1-1.3-1.1c-0.7,0-1.2,0.6-1.3,1.1c0,0.1,0,0.4,0.1,0.7c-0.2,0-0.1,0.4-0.1,0.5
		c0,0.1,0.1,0.4,0.2,0.3c0.1,0.6,0.3,0.8,0.3,0.8v0.5c0,0.1-0.1,0.3-0.3,0.3c-1,0.4-1.6,0.8-1.6,1v0.1h0C2.4,7.8,3.6,8,5.1,8
		s2.7-0.2,2.7-0.4h0V7.4C7.8,7.2,7.2,6.8,6.1,6.4z"/>
</g>
</svg>
