<?xml version="1.0" encoding="utf-8"?>
<!-- Generator: Adobe Illustrator 21.0.0, SVG Export Plug-In . SVG Version: 6.00 Build 0)  -->
<svg version="1.1" id="Layer_1" xmlns="http://www.w3.org/2000/svg" xmlns:xlink="http://www.w3.org/1999/xlink" x="0px" y="0px"
	 viewBox="0 0 9.9 12.8" style="enable-background:new 0 0 9.9 12.8;" xml:space="preserve">
<style type="text/css">
	.st0{fill:#231F20;}
	.st1{fill-rule:evenodd;clip-rule:evenodd;fill:#231F20;}
	.st2{fill:#FFFFFF;}
</style>
<path class="st0" d="M9.9,5c0-2.8-2.2-5-5-5C2.2,0,0,2.2,0,5C0,6,0.3,7,0.9,7.8h0l0,0C1,8,1.2,8.2,1.4,8.4L5,12.8l3.6-4.4
	C8.8,8.2,8.9,8,9,7.9l0,0h0C9.6,7,9.9,6,9.9,5z M5,6.1c-0.8,0-1.4-0.6-1.4-1.4c0-0.8,0.6-1.4,1.4-1.4c0.8,0,1.4,0.6,1.4,1.4
	C6.4,5.5,5.8,6.1,5,6.1z"/>
</svg>
