<?xml version="1.0" encoding="utf-8"?>
<!-- Generator: Adobe Illustrator 21.0.0, SVG Export Plug-In . SVG Version: 6.00 Build 0)  -->
<svg version="1.1" id="Layer_1" xmlns="http://www.w3.org/2000/svg" xmlns:xlink="http://www.w3.org/1999/xlink" x="0px" y="0px"
	 viewBox="0 0 17.7 17.7" style="enable-background:new 0 0 17.7 17.7;" xml:space="preserve">
<style type="text/css">
	.st0{fill:#231F20;}
	.st1{fill-rule:evenodd;clip-rule:evenodd;fill:#231F20;}
	.st2{fill:#FFFFFF;}
</style>
<path class="st0" d="M8.8,0C4,0,0,4,0,8.8s4,8.8,8.8,8.8c4.9,0,8.8-4,8.8-8.8S13.7,0,8.8,0z M12.9,11.3c0,0.4-0.3,0.7-0.7,0.7H5.5
	c-0.4,0-0.7-0.3-0.7-0.7V7.7C4.9,7.9,5.1,8,5.2,8.1c0.8,0.5,1.5,1,2.3,1.6c0.4,0.3,0.9,0.6,1.4,0.6h0h0c0.5,0,1-0.3,1.4-0.6
	c0.7-0.5,1.5-1.1,2.3-1.6c0.2-0.1,0.3-0.2,0.5-0.4V11.3z M12.1,7.3c-0.7,0.5-1.4,1-2.1,1.5C9.7,9,9.2,9.4,8.8,9.4h0h0
	C8.5,9.4,8,9,7.7,8.8C7,8.3,6.2,7.8,5.5,7.3C5.2,7.1,4.8,6.6,4.8,6.2c0-0.4,0.2-0.8,0.7-0.8h6.7c0.4,0,0.7,0.3,0.7,0.7
	C12.9,6.6,12.5,7.1,12.1,7.3z"/>
</svg>
