<?xml version="1.0" encoding="utf-8"?>
<!-- Generator: Adobe Illustrator 21.0.0, SVG Export Plug-In . SVG Version: 6.00 Build 0)  -->
<svg version="1.1" id="Layer_1" xmlns="http://www.w3.org/2000/svg" xmlns:xlink="http://www.w3.org/1999/xlink" x="0px" y="0px"
	 viewBox="0 0 11 10.2" style="enable-background:new 0 0 11 10.2;" xml:space="preserve">
<style type="text/css">
	.st0{fill:#231F20;}
	.st1{fill-rule:evenodd;clip-rule:evenodd;fill:#231F20;}
	.st2{fill:#FFFFFF;}
</style>
<path class="st0" d="M5.5,1.4l0.6,1.2C6.5,3.4,7.4,4,8.2,4.1l1.3,0.2L8.6,5.2C8,5.8,7.7,6.8,7.8,7.7L8,8.9L6.8,8.3
	C6.4,8.1,6,8,5.5,8S4.6,8.1,4.2,8.3L3,8.9l0.2-1.3C3.3,6.8,3,5.8,2.4,5.2L1.5,4.3l1.3-0.2C3.6,4,4.5,3.4,4.9,2.6L5.5,1.4 M5.5,0
	C5.3,0,5.2,0.1,5,0.4L4.1,2.2c-0.2,0.5-0.9,1-1.4,1L0.5,3.6C0,3.6-0.2,4,0.2,4.4l1.5,1.5C2.2,6.2,2.4,7,2.3,7.5L2,9.5
	c-0.1,0.4,0.1,0.6,0.4,0.6c0.1,0,0.2,0,0.4-0.1l1.9-1C4.9,9,5.2,8.9,5.5,8.9c0.3,0,0.6,0.1,0.9,0.2l1.9,1c0.1,0.1,0.3,0.1,0.4,0.1
	c0.3,0,0.4-0.2,0.4-0.6l-0.4-2C8.6,7,8.8,6.2,9.2,5.8l1.5-1.5C11.2,4,11,3.6,10.5,3.6L8.3,3.2c-0.5-0.1-1.2-0.5-1.4-1L6,0.4
	C5.8,0.1,5.7,0,5.5,0L5.5,0z"/>
</svg>
