<?xml version="1.0" encoding="utf-8"?>
<!-- Generator: Adobe Illustrator 21.0.0, SVG Export Plug-In . SVG Version: 6.00 Build 0)  -->
<svg version="1.1" id="Layer_1" xmlns="http://www.w3.org/2000/svg" xmlns:xlink="http://www.w3.org/1999/xlink" x="0px" y="0px"
	 viewBox="0 0 6.8 8.7" style="enable-background:new 0 0 6.8 8.7;" xml:space="preserve">
<style type="text/css">
	.st0{fill:#231F20;}
	.st1{fill-rule:evenodd;clip-rule:evenodd;fill:#231F20;}
	.st2{fill:#FFFFFF;}
</style>
<g>
	<path class="st0" d="M6.8,3.4C6.8,1.5,5.3,0,3.4,0C1.5,0,0,1.5,0,3.4c0,0.7,0.2,1.4,0.6,1.9h0l0,0c0.1,0.1,0.2,0.3,0.3,0.4l2.5,3
		l2.5-3C6,5.6,6.1,5.4,6.2,5.3l0,0h0C6.6,4.7,6.8,4.1,6.8,3.4z M5.4,4.7L5.4,4.7L5.4,4.7C5.3,4.8,5.3,4.9,5.2,5l0,0l0,0L3.4,7.1
		L1.7,5l0,0l0,0C1.6,4.9,1.5,4.8,1.4,4.7l0,0C1.1,4.3,1,3.9,1,3.4C1,2.1,2.1,1,3.4,1s2.4,1.1,2.4,2.4C5.8,3.8,5.7,4.3,5.4,4.7z
		 M3.4,2.4c-0.5,0-1,0.4-1,1c0,0.5,0.4,1,1,1c0.5,0,1-0.4,1-1C4.4,2.8,4,2.4,3.4,2.4z"/>
</g>
</svg>
