<?xml version="1.0" encoding="utf-8"?>
<!-- Generator: Adobe Illustrator 21.0.0, SVG Export Plug-In . SVG Version: 6.00 Build 0)  -->
<svg version="1.1" id="Layer_1" xmlns="http://www.w3.org/2000/svg" xmlns:xlink="http://www.w3.org/1999/xlink" x="0px" y="0px"
	 viewBox="0 0 10.1 10.6" style="enable-background:new 0 0 10.1 10.6;" xml:space="preserve">
<style type="text/css">
	.st0{fill:#231F20;}
	.st1{fill-rule:evenodd;clip-rule:evenodd;fill:#231F20;}
	.st2{fill:#FFFFFF;}
</style>
<g>
	<path class="st0" d="M4.6,9l1.9-0.6L5.1,7.1L4.6,9z M8.9,5.8L7.6,4.5L5.4,6.8l1.3,1.3L8.9,5.8z M6.8,8.7L3.9,9.6l0.7-2.9l1.9-1.7
		l0.9-0.9H0.9V2.3h1.4v0.9h0.9V2.3h2.7v0.9h0.9V2.3h1.4v1l0.9-0.8V1.4H6.8V0H5.9v1.4H3.2V0H2.3v1.4H0v9.2h9.1V6.3L8.2,7.2L6.8,8.7z
		 M9.9,3.6C9.5,3.2,9,3.2,8.6,3.6L7.9,4.2l1.3,1.3l0.6-0.7C10.2,4.5,10.2,3.9,9.9,3.6z"/>
</g>
</svg>
