<?xml version="1.0" encoding="utf-8"?>
<!-- Generator: Adobe Illustrator 21.0.0, SVG Export Plug-In . SVG Version: 6.00 Build 0)  -->
<svg version="1.1" id="Layer_1" xmlns="http://www.w3.org/2000/svg" xmlns:xlink="http://www.w3.org/1999/xlink" x="0px" y="0px"
	 viewBox="0 0 11 10.2" style="enable-background:new 0 0 11 10.2;" xml:space="preserve">
<style type="text/css">
	.st0{fill:#231F20;}
	.st1{fill-rule:evenodd;clip-rule:evenodd;fill:#231F20;}
	.st2{fill:#FFFFFF;}
</style>
<path class="st0" d="M6,0.4C5.7-0.1,5.3-0.1,5,0.4L4.1,2.2c-0.2,0.5-0.9,1-1.4,1L0.5,3.6C0,3.6-0.2,4,0.2,4.4l1.5,1.5
	C2.2,6.2,2.4,7,2.3,7.5L2,9.5c-0.1,0.5,0.2,0.8,0.7,0.5l1.9-1c0.5-0.2,1.3-0.2,1.8,0l1.9,1c0.5,0.2,0.8,0,0.7-0.5l-0.4-2
	C8.6,7,8.8,6.2,9.2,5.8l1.5-1.5C11.2,4,11,3.6,10.5,3.6L8.3,3.2c-0.5-0.1-1.2-0.5-1.4-1L6,0.4z"/>
</svg>
